<svg id="visual" viewBox="0 0 181 171" width="181" height="171" xmlns="http://www.w3.org/2000/svg" xmlns:xlink="http://www.w3.org/1999/xlink" version="1.1"><rect x="0" y="0" width="181" height="171" fill="#90ee90"></rect><defs><linearGradient id="grad1_0" x1="5.6%" y1="100%" x2="100%" y2="0%"><stop offset="28.823529411764707%" stop-color="#73da77" stop-opacity="1"></stop><stop offset="71.17647058823529%" stop-color="#73da77" stop-opacity="1"></stop></linearGradient></defs><defs><linearGradient id="grad1_1" x1="5.6%" y1="100%" x2="100%" y2="0%"><stop offset="28.823529411764707%" stop-color="#73da77" stop-opacity="1"></stop><stop offset="71.17647058823529%" stop-color="#77dd7b" stop-opacity="1"></stop></linearGradient></defs><defs><linearGradient id="grad1_2" x1="5.6%" y1="100%" x2="100%" y2="0%"><stop offset="28.823529411764707%" stop-color="#7be07e" stop-opacity="1"></stop><stop offset="71.17647058823529%" stop-color="#77dd7b" stop-opacity="1"></stop></linearGradient></defs><defs><linearGradient id="grad1_3" x1="5.6%" y1="100%" x2="100%" y2="0%"><stop offset="28.823529411764707%" stop-color="#7be07e" stop-opacity="1"></stop><stop offset="71.17647058823529%" stop-color="#80e382" stop-opacity="1"></stop></linearGradient></defs><defs><linearGradient id="grad1_4" x1="5.6%" y1="100%" x2="100%" y2="0%"><stop offset="28.823529411764707%" stop-color="#84e585" stop-opacity="1"></stop><stop offset="71.17647058823529%" stop-color="#80e382" stop-opacity="1"></stop></linearGradient></defs><defs><linearGradient id="grad1_5" x1="5.6%" y1="100%" x2="100%" y2="0%"><stop offset="28.823529411764707%" stop-color="#84e585" stop-opacity="1"></stop><stop offset="71.17647058823529%" stop-color="#88e889" stop-opacity="1"></stop></linearGradient></defs><defs><linearGradient id="grad1_6" x1="5.6%" y1="100%" x2="100%" y2="0%"><stop offset="28.823529411764707%" stop-color="#8ceb8c" stop-opacity="1"></stop><stop offset="71.17647058823529%" stop-color="#88e889" stop-opacity="1"></stop></linearGradient></defs><defs><linearGradient id="grad1_7" x1="5.6%" y1="100%" x2="100%" y2="0%"><stop offset="28.823529411764707%" stop-color="#8ceb8c" stop-opacity="1"></stop><stop offset="71.17647058823529%" stop-color="#90ee90" stop-opacity="1"></stop></linearGradient></defs><defs><linearGradient id="grad2_0" x1="0%" y1="100%" x2="94.4%" y2="0%"><stop offset="28.823529411764707%" stop-color="#73da77" stop-opacity="1"></stop><stop offset="71.17647058823529%" stop-color="#73da77" stop-opacity="1"></stop></linearGradient></defs><defs><linearGradient id="grad2_1" x1="0%" y1="100%" x2="94.4%" y2="0%"><stop offset="28.823529411764707%" stop-color="#77dd7b" stop-opacity="1"></stop><stop offset="71.17647058823529%" stop-color="#73da77" stop-opacity="1"></stop></linearGradient></defs><defs><linearGradient id="grad2_2" x1="0%" y1="100%" x2="94.4%" y2="0%"><stop offset="28.823529411764707%" stop-color="#77dd7b" stop-opacity="1"></stop><stop offset="71.17647058823529%" stop-color="#7be07e" stop-opacity="1"></stop></linearGradient></defs><defs><linearGradient id="grad2_3" x1="0%" y1="100%" x2="94.4%" y2="0%"><stop offset="28.823529411764707%" stop-color="#80e382" stop-opacity="1"></stop><stop offset="71.17647058823529%" stop-color="#7be07e" stop-opacity="1"></stop></linearGradient></defs><defs><linearGradient id="grad2_4" x1="0%" y1="100%" x2="94.4%" y2="0%"><stop offset="28.823529411764707%" stop-color="#80e382" stop-opacity="1"></stop><stop offset="71.17647058823529%" stop-color="#84e585" stop-opacity="1"></stop></linearGradient></defs><defs><linearGradient id="grad2_5" x1="0%" y1="100%" x2="94.4%" y2="0%"><stop offset="28.823529411764707%" stop-color="#88e889" stop-opacity="1"></stop><stop offset="71.17647058823529%" stop-color="#84e585" stop-opacity="1"></stop></linearGradient></defs><defs><linearGradient id="grad2_6" x1="0%" y1="100%" x2="94.4%" y2="0%"><stop offset="28.823529411764707%" stop-color="#88e889" stop-opacity="1"></stop><stop offset="71.17647058823529%" stop-color="#8ceb8c" stop-opacity="1"></stop></linearGradient></defs><defs><linearGradient id="grad2_7" x1="0%" y1="100%" x2="94.4%" y2="0%"><stop offset="28.823529411764707%" stop-color="#90ee90" stop-opacity="1"></stop><stop offset="71.17647058823529%" stop-color="#8ceb8c" stop-opacity="1"></stop></linearGradient></defs><g transform="translate(181, 171)"><path d="M-111.4 0C-109.9 -11.6 -108.4 -23.3 -104.6 -34C-100.8 -44.7 -94.7 -54.4 -88.2 -64.1C-81.6 -73.7 -74.6 -83.2 -65.5 -90.1C-56.4 -97.1 -45.2 -101.5 -34 -104.6C-22.7 -107.7 -11.4 -109.6 0 -111.4L0 0Z" fill="#8eed8e"></path><path d="M-97.5 0C-96.2 -10.2 -94.9 -20.4 -91.5 -29.7C-88.2 -39.1 -82.9 -47.6 -77.2 -56.1C-71.4 -64.5 -65.3 -72.8 -57.3 -78.9C-49.3 -85 -39.6 -88.8 -29.7 -91.5C-19.9 -94.3 -9.9 -95.9 0 -97.5L0 0Z" fill="#8aea8b"></path><path d="M-83.6 0C-82.4 -8.7 -81.3 -17.5 -78.5 -25.5C-75.6 -33.5 -71.1 -40.8 -66.1 -48.1C-61.2 -55.3 -55.9 -62.4 -49.1 -67.6C-42.3 -72.8 -33.9 -76.1 -25.5 -78.5C-17.1 -80.8 -8.5 -82.2 0 -83.6L0 0Z" fill="#86e787"></path><path d="M-69.6 0C-68.7 -7.3 -67.8 -14.6 -65.4 -21.2C-63 -27.9 -59.2 -34 -55.1 -40C-51 -46.1 -46.6 -52 -40.9 -56.3C-35.2 -60.7 -28.3 -63.4 -21.2 -65.4C-14.2 -67.3 -7.1 -68.5 0 -69.6L0 0Z" fill="#82e483"></path><path d="M-55.7 0C-55 -5.8 -54.2 -11.6 -52.3 -17C-50.4 -22.3 -47.4 -27.2 -44.1 -32C-40.8 -36.8 -37.3 -41.6 -32.7 -45.1C-28.2 -48.5 -22.6 -50.7 -17 -52.3C-11.4 -53.9 -5.7 -54.8 0 -55.7L0 0Z" fill="#7ee181"></path><path d="M-41.8 0C-41.2 -4.4 -40.7 -8.7 -39.2 -12.7C-37.8 -16.8 -35.5 -20.4 -33.1 -24C-30.6 -27.6 -28 -31.2 -24.6 -33.8C-21.1 -36.4 -17 -38.1 -12.7 -39.2C-8.5 -40.4 -4.3 -41.1 0 -41.8L0 0Z" fill="#79de7c"></path><path d="M-27.9 0C-27.5 -2.9 -27.1 -5.8 -26.2 -8.5C-25.2 -11.2 -23.7 -13.6 -22 -16C-20.4 -18.4 -18.6 -20.8 -16.4 -22.5C-14.1 -24.3 -11.3 -25.4 -8.5 -26.2C-5.7 -26.9 -2.8 -27.4 0 -27.9L0 0Z" fill="#75db79"></path><path d="M-13.9 0C-13.7 -1.5 -13.6 -2.9 -13.1 -4.2C-12.6 -5.6 -11.8 -6.8 -11 -8C-10.2 -9.2 -9.3 -10.4 -8.2 -11.3C-7 -12.1 -5.7 -12.7 -4.2 -13.1C-2.8 -13.5 -1.4 -13.7 0 -13.9L0 0Z" fill="#73da77"></path></g><g transform="translate(0, 0)"><path d="M111.4 0C109.5 11.4 107.6 22.9 103.7 33.7C99.8 44.5 93.9 54.7 86.6 62.9C79.2 71.1 70.4 77.4 61.7 84.9C53.1 92.5 44.7 101.3 34.4 106C24.2 110.6 12.1 111 0 111.4L0 0Z" fill="#8eed8e"></path><path d="M97.5 0C95.8 10 94.1 20 90.7 29.5C87.3 38.9 82.2 47.8 75.7 55C69.3 62.2 61.6 67.7 54 74.3C46.4 80.9 39.1 88.7 30.1 92.7C21.2 96.8 10.6 97.1 0 97.5L0 0Z" fill="#8aea8b"></path><path d="M83.6 0C82.1 8.6 80.7 17.2 77.7 25.3C74.8 33.4 70.4 41 64.9 47.2C59.4 53.3 52.8 58 46.3 63.7C39.8 69.4 33.5 76 25.8 79.5C18.1 82.9 9.1 83.3 0 83.6L0 0Z" fill="#86e787"></path><path d="M69.6 0C68.4 7.1 67.2 14.3 64.8 21.1C62.4 27.8 58.7 34.2 54.1 39.3C49.5 44.4 44 48.4 38.6 53.1C33.2 57.8 27.9 63.3 21.5 66.2C15.1 69.1 7.6 69.4 0 69.6L0 0Z" fill="#82e483"></path><path d="M55.7 0C54.7 5.7 53.8 11.4 51.8 16.8C49.9 22.2 47 27.3 43.3 31.4C39.6 35.6 35.2 38.7 30.9 42.5C26.5 46.3 22.3 50.7 17.2 53C12.1 55.3 6 55.5 0 55.7L0 0Z" fill="#7ee180"></path><path d="M41.8 0C41.1 4.3 40.3 8.6 38.9 12.6C37.4 16.7 35.2 20.5 32.5 23.6C29.7 26.7 26.4 29 23.1 31.9C19.9 34.7 16.8 38 12.9 39.7C9.1 41.5 4.5 41.6 0 41.8L0 0Z" fill="#79de7c"></path><path d="M27.9 0C27.4 2.9 26.9 5.7 25.9 8.4C24.9 11.1 23.5 13.7 21.6 15.7C19.8 17.8 17.6 19.3 15.4 21.2C13.3 23.1 11.2 25.3 8.6 26.5C6 27.6 3 27.8 0 27.9L0 0Z" fill="#75db79"></path><path d="M13.9 0C13.7 1.4 13.4 2.9 13 4.2C12.5 5.6 11.7 6.8 10.8 7.9C9.9 8.9 8.8 9.7 7.7 10.6C6.6 11.6 5.6 12.7 4.3 13.2C3 13.8 1.5 13.9 0 13.9L0 0Z" fill="#73da77"></path></g></svg>